<?xml version="1.0" encoding="utf-8" ?>
<svg xmlns="http://www.w3.org/2000/svg" xmlns:xlink="http://www.w3.org/1999/xlink" width="1023" height="1024">
	<path fill="#1D75BD" d="M0 0L1024 0L1024 1024L0 1024L0 0Z"/>
	<path fill="#012D63" d="M506.561 5.59746C509.719 5.39486 512.925 5.11227 516.072 5.56627C522.142 6.44202 527.324 9.10896 531.706 13.36C536.06 17.5837 539.696 22.8148 543.363 27.6385C551.764 38.6918 559.616 50.119 567.849 61.2913L653.771 178.792C667.354 175.048 681.868 173.386 695.725 170.781Q747.069 161.179 798.563 152.422Q816.734 149.27 834.871 145.924C843.064 144.35 851.975 141.63 860.31 141.611C866.188 141.598 871.07 143.171 875.19 147.474C879.065 151.52 881.311 156.72 881.474 162.309C881.79 173.175 876.528 193.474 874.512 205.145C869.943 231.592 866.095 258.224 861.103 284.588Q856.031 310.744 851.727 337.037C849.923 347.727 847.551 358.601 847.317 369.456C854.568 379.23 866.988 385.428 876.611 392.705L982.684 471.756C989.057 476.523 995.351 481.422 1001.8 486.083C1005.95 489.084 1011.44 491.863 1014.89 495.62C1019.06 500.177 1021.02 508.265 1020.47 514.231C1019.91 520.215 1017.58 526.026 1013.38 530.371C1009.02 534.874 1003.41 538.297 998.301 541.894C991.699 546.547 985.168 551.236 978.736 556.126L894.399 619.023C878.129 631.064 861.118 642.77 845.688 655.87C848.602 670.334 850.934 684.879 853.555 699.395Q861.991 743.934 869.442 788.648C873.296 810.747 878.6 832.991 881.274 855.246C881.763 859.317 882.134 863.531 881.141 867.554C879.818 872.913 876.383 878.5 871.513 881.302C867.04 883.875 861.292 883.975 856.276 883.495C846.792 882.588 837.214 880.072 827.855 878.267L771.546 867.396C743.223 861.974 714.825 856.603 686.594 850.737C676.017 848.539 665.164 847.127 654.77 844.161C650.595 849.107 646.914 854.651 643.094 859.888Q630.966 876.447 619.163 893.239Q589.531 934.493 559.111 975.169C550.547 986.635 539.578 1004.19 529.512 1013.47C525.592 1017.09 521.26 1018.57 516.179 1019.63C513.205 1020.06 509.799 1020.24 506.838 1019.72C500.809 1018.67 495.503 1015.55 491.295 1011.18C485.885 1005.56 481.154 997.825 476.647 991.397Q464.871 974.556 452.874 957.872L400.565 886.329C390.151 872.172 379.315 858.253 369.426 843.724C356.024 845.702 342.527 849.334 329.184 851.915L214.548 874.305C199.541 877.105 182.859 881.226 167.781 882.671C164.419 882.993 160.909 883.04 157.614 882.223C151.442 880.694 146.404 876.509 143.21 871.088C140.574 866.614 140.122 861.644 140.473 856.561C141.136 846.972 143.545 837.163 145.295 827.715Q150.375 799.867 155.933 772.109Q163.786 729.775 172.36 687.582C174.559 676.723 176.154 665.636 178.86 654.897C156.407 637.417 133.191 620.728 110.246 603.898L66.0492 571.07Q45.9439 556.72 26.3884 541.629C20.6682 537.282 13.5567 533.004 8.87982 527.494C4.88611 522.79 3.01358 514.632 3.7261 508.712C4.39055 503.19 6.71032 498.119 10.6171 494.152C14.2227 490.491 18.8573 487.489 22.997 484.464C31.4474 478.288 40.0504 472.345 48.3799 466.002C90.9752 433.561 134.963 402.85 176.781 369.391C175.983 362.107 174.209 354.699 172.97 347.452Q168.369 319.681 162.887 292.071C158.602 269.869 155.307 247.471 151.224 225.233C149.039 213.325 147.06 201.451 145.128 189.503C143.745 180.947 140.307 169.993 141.758 161.415C142.798 155.262 146.531 149.25 151.634 145.648C155.798 142.708 159.807 142.081 164.756 142.286C171.939 142.584 179.162 144.173 186.244 145.398L225.474 152.543L339.656 173.519C349.862 175.37 359.999 177.553 370.227 179.29C392.526 146.328 417.036 114.826 440.207 82.4836C452.627 65.1482 464.942 47.8896 477.773 30.8492C482.287 24.8547 486.659 17.5004 491.994 12.2927C496.172 8.21512 501.048 6.80191 506.561 5.59746Z"/>
	<path fill="#FEFEFE" d="M511.37 62.0987C514.698 64.8641 517.733 70.0276 520.373 73.5157L538.015 96.7046C570.681 139.516 602.308 183.154 635.251 225.745L759.108 203.8C772.608 201.35 786.166 199.294 799.661 196.867C810.552 194.908 821.47 192.412 832.481 191.279L798.765 388.717L900.748 465.277C921.511 480.703 943.64 495.298 963.144 512.26C954.461 520.027 944.384 526.789 935.079 533.82Q909.841 553.156 884.248 572.02C855.488 593.271 827.507 615.766 798.087 636.094C802.076 664.17 807.66 691.976 812.219 719.948L821.607 776.908C824.589 795.563 827.318 814.193 830.832 832.763C812.863 830.651 794.847 826.608 777.094 823.117L683.511 804.81C668.602 801.924 653.694 798.413 638.666 796.23C626.724 813.101 613.761 829.001 601.281 845.452L557.618 904.15C542.807 923.7 527.461 942.854 512.903 962.596L507.446 956.25C502.884 951.103 498.722 945.403 494.469 939.992Q484.162 927.052 474.243 913.812C467.958 905.262 461.976 896.472 455.588 888.001C432.264 857.07 408.045 826.754 385.717 795.095C379.046 796.111 372.372 797.856 365.746 799.176L332.998 805.509Q261.798 820.265 190.371 833.889C192.891 817.046 196.424 800.311 199.713 783.603L209.379 732.991L219.921 678.654C222.509 664.799 224.703 650.76 227.903 637.036C215.499 627.32 202.63 618.192 190.01 608.763L59.0665 512.226C71.1504 502.765 83.9684 494.18 96.2836 485.013L176.612 425.094C193.275 412.816 210.613 401.148 226.512 387.88Q214.069 322.465 202.831 256.832C199.014 234.832 193.942 212.875 191.283 190.696C196.523 191.253 201.841 192.487 207.035 193.404L248.06 201.054L387.621 226.744C400.265 211.252 411.931 194.929 423.864 178.888L471.733 114.603C480.868 102.128 489.957 89.7157 499.39 77.4618C503.349 72.3183 507.113 67.0036 511.37 62.0987Z"/>
	<path fill="#F5B723" d="M759.662 654.356C762.734 665.277 763.626 677.273 765.586 688.487C768.698 706.294 772.296 724.027 775.302 741.849C777.599 755.465 779.258 769.353 781.995 782.875C749.566 777.051 717.563 770.756 685.454 763.343C676.9 761.367 667.521 760.639 659.368 757.338C700.438 733.765 736.001 695.075 759.662 654.356Z"/>
	<path fill="#F5B723" d="M264.73 654.088C292.676 701.162 322.524 728.658 368.494 757.437C355.644 762.171 338.869 764.222 325.306 766.87Q282.884 774.863 240.607 783.591L260.339 681.952C262.045 672.709 263.127 663.35 264.73 654.088Z"/>
	<path fill="#F5B723" d="M264.947 369.641C263.604 366.051 263.051 361.864 262.287 358.108C260.223 347.972 258.649 337.764 256.739 327.602L248.073 280.549C245.591 267.659 242.506 254.404 241.167 241.37C265.355 245.355 289.284 250.605 313.41 254.964C323.94 256.866 334.471 258.872 345.04 260.547C353.51 261.89 362.048 262.916 370.465 264.563C326.762 288.126 290.32 327.389 264.947 369.641Z"/>
	<path fill="#F5B723" d="M650.881 263.565C659.286 261.269 668.571 260.745 677.19 259.238L749.999 246.413C760.644 244.502 771.877 243.548 782.297 240.75L765.626 336.319C763.532 347.858 762.463 360.325 759.436 371.61C740.243 335.07 709.34 302.093 675.553 278.58C667.65 273.08 659.233 268.337 650.881 263.565Z"/>
	<path fill="#F5B723" d="M510.768 129.921C523.674 144.902 535.057 161.448 546.953 177.249C562.071 197.329 578.014 217.33 591.837 238.318C583.175 235.88 574.561 233.441 565.717 231.753Q561.508 230.991 557.279 230.354Q553.05 229.716 548.804 229.203Q544.558 228.69 540.299 228.302Q536.04 227.914 531.771 227.651Q527.502 227.388 523.227 227.251Q518.953 227.114 514.676 227.103Q510.399 227.091 506.124 227.206Q501.848 227.32 497.578 227.56Q493.308 227.8 489.047 228.165Q484.785 228.531 480.537 229.021Q476.288 229.512 472.056 230.127Q467.823 230.742 463.611 231.481Q459.398 232.22 455.209 233.083Q451.02 233.946 446.858 234.931Q442.697 235.917 438.566 237.024Q434.435 238.132 430.338 239.36C434.919 230.238 442.986 222.14 449.014 213.865C469.471 185.782 490.941 158.476 510.768 129.921Z"/>
	<path fill="#F5B723" d="M128.038 511.072C132.857 507.151 138.282 504.029 143.319 500.401L177.968 475.074L213.72 448.649C221.44 442.947 229.119 436.831 237.366 431.914C223.639 485.378 222.772 539.738 238.34 592.889C225.529 584.303 213.442 574.497 200.988 565.4L163.682 537.59C151.776 528.798 139.662 520.234 128.038 511.072Z"/>
	<path fill="#F5B723" d="M429.637 783.645C487.95 799.931 532.276 800.009 591.056 786.155Q562.41 827.672 532.049 867.951C525.363 876.916 519.581 887.155 511.986 895.324L456.561 820.575C447.528 808.341 438.909 795.684 429.637 783.645Z"/>
	<path fill="#F5B723" d="M785.583 430.634C799.241 438.627 811.775 448.978 824.407 458.491C848.159 476.378 871.889 494.816 896.404 511.617Q861.302 538.606 825.699 564.929Q813.715 574.124 801.598 583.144C796.547 586.913 791.546 590.92 786.052 594.034C801.805 539.35 801.232 485.183 785.583 430.634Z"/>
	<path fill="#012D63" d="M430.338 239.36Q434.435 238.132 438.566 237.024Q442.697 235.917 446.858 234.931Q451.02 233.946 455.209 233.083Q459.398 232.22 463.611 231.481Q467.823 230.742 472.056 230.127Q476.288 229.512 480.537 229.021Q484.785 228.531 489.047 228.165Q493.308 227.8 497.578 227.56Q501.848 227.32 506.124 227.206Q510.399 227.091 514.676 227.103Q518.953 227.114 523.227 227.251Q527.502 227.388 531.771 227.651Q536.04 227.914 540.299 228.302Q544.558 228.69 548.804 229.203Q553.05 229.716 557.279 230.354Q561.508 230.991 565.717 231.753C574.561 233.441 583.175 235.88 591.837 238.318C603.737 242.322 615.57 246.238 626.993 251.493C635.108 255.226 642.791 259.823 650.881 263.565C659.233 268.337 667.65 273.08 675.553 278.58C709.34 302.093 740.243 335.07 759.436 371.61C763.061 380.458 769.13 388.389 773.061 397.196C777.909 408.059 780.599 419.914 785.583 430.634C801.232 485.183 801.805 539.35 786.052 594.034C783.334 601.149 781.295 608.505 778.548 615.608C773.383 628.968 766.788 641.945 759.662 654.356C736.001 695.075 700.438 733.765 659.368 757.338C650.682 761.704 642.259 766.471 633.433 770.575C619.803 776.912 605.463 781.922 591.056 786.155C532.276 800.009 487.95 799.931 429.637 783.645C422.378 781.003 414.938 778.896 407.709 776.142C394.096 770.956 381.229 764.464 368.494 757.437C322.524 728.658 292.676 701.162 264.73 654.088C261.016 646.833 256.862 639.825 253.518 632.383C247.714 619.468 243.328 606.113 238.34 592.889C222.772 539.738 223.639 485.378 237.366 431.914C239.435 427.378 240.964 422.444 242.762 417.783C246.555 407.947 250.479 398.052 254.794 388.432C257.709 381.932 261.83 376.039 264.947 369.641C290.32 327.389 326.762 288.126 370.465 264.563C377.205 261.785 383.607 257.652 390.266 254.595C403.288 248.615 416.776 243.922 430.338 239.36Z"/>
	<path fill="#0A9DED" d="M499.295 243.713C499.947 243.657 500.594 243.603 501.248 243.581Q504.576 243.469 507.907 243.439Q511.237 243.409 514.567 243.46Q517.897 243.511 521.224 243.644Q524.552 243.776 527.875 243.99Q531.199 244.204 534.516 244.499Q537.833 244.794 541.142 245.17Q544.451 245.546 547.75 246.003Q551.049 246.46 554.336 246.998Q557.622 247.535 560.895 248.152Q564.168 248.77 567.424 249.467Q570.681 250.165 573.919 250.942Q577.157 251.718 580.376 252.574Q583.594 253.43 586.791 254.364Q589.988 255.298 593.161 256.31Q596.333 257.322 599.481 258.412Q602.628 259.501 605.747 260.667Q608.867 261.833 611.957 263.074Q615.047 264.316 618.106 265.633Q621.165 266.95 624.19 268.342Q627.216 269.733 630.207 271.198Q633.198 272.663 636.152 274.201Q639.106 275.738 642.022 277.348Q644.937 278.957 647.813 280.637Q650.688 282.317 653.522 284.067Q656.355 285.817 659.145 287.636Q661.935 289.455 664.679 291.341Q667.424 293.228 670.122 295.181Q672.819 297.133 675.468 299.152Q678.117 301.17 680.716 303.253Q683.315 305.335 685.862 307.48Q688.41 309.626 690.904 311.833Q693.398 314.04 695.837 316.307C737.676 355.387 766.36 411.042 776.606 467.219C779.121 481.004 780.256 495.085 780.723 509.079C782.269 555.335 768.973 604.946 746.044 645.037C735.569 663.352 722.094 680.954 707.679 696.341Q702.89 701.547 697.819 706.48Q692.748 711.413 687.411 716.057Q682.075 720.701 676.489 725.042Q670.903 729.383 665.085 733.407C625.551 760.652 572.607 779.039 524.504 780.583L522.815 780.7C510.608 781.489 498.279 780.719 486.127 779.484Q483.465 779.201 480.81 778.866Q478.154 778.531 475.505 778.144Q472.857 777.758 470.216 777.32Q467.576 776.882 464.944 776.393Q462.312 775.904 459.691 775.364Q457.069 774.824 454.458 774.233Q451.848 773.642 449.249 773.001Q446.65 772.36 444.064 771.668Q441.479 770.977 438.907 770.235Q436.335 769.493 433.778 768.702Q431.221 767.911 428.68 767.07Q426.138 766.229 423.614 765.339Q421.09 764.449 418.583 763.51Q416.076 762.571 413.588 761.584Q411.1 760.596 408.632 759.561Q406.164 758.526 403.716 757.443Q401.268 756.359 398.842 755.229Q396.416 754.099 394.012 752.921Q391.608 751.744 389.227 750.52Q386.847 749.297 384.49 748.027Q382.134 746.757 379.803 745.442Q377.471 744.127 375.166 742.767Q372.861 741.407 370.582 740.002Q368.303 738.598 366.053 737.149Q363.802 735.701 361.579 734.208Q359.357 732.717 357.164 731.182Q354.971 729.647 352.809 728.07Q350.646 726.493 348.514 724.874Q346.382 723.255 344.282 721.595Q342.182 719.936 340.115 718.235Q338.048 716.535 336.014 714.795Q333.98 713.055 331.98 711.276Q329.577 709.128 327.226 706.922Q324.875 704.716 322.578 702.454Q320.281 700.192 318.04 697.875Q315.798 695.558 313.613 693.187Q311.429 690.817 309.302 688.394Q307.175 685.971 305.107 683.498Q303.04 681.025 301.032 678.502Q299.025 675.98 297.079 673.409Q295.134 670.839 293.251 668.222Q291.368 665.605 289.549 662.944Q287.729 660.283 285.975 657.578Q284.221 654.873 282.532 652.127Q280.844 649.381 279.223 646.595Q277.601 643.808 276.047 640.984Q274.494 638.159 273.009 635.298Q271.524 632.437 270.108 629.54Q268.693 626.644 267.348 623.714Q266.003 620.784 264.73 617.823Q263.456 614.861 262.254 611.87Q261.052 608.878 259.923 605.859Q258.794 602.839 257.739 599.793Q256.683 596.747 255.701 593.677Q254.719 590.606 253.812 587.513Q252.905 584.419 252.073 581.305Q251.24 578.19 250.484 575.057Q249.727 571.923 249.046 568.772Q248.366 565.621 247.761 562.454Q247.157 559.288 246.63 556.107Q246.102 552.927 245.651 549.735Q245.201 546.543 244.828 543.341Q244.454 540.139 244.159 536.929Q243.863 533.718 243.645 530.502Q243.422 527.178 243.282 523.85Q243.142 520.521 243.084 517.191Q243.027 513.86 243.053 510.529Q243.079 507.197 243.187 503.868Q243.296 500.538 243.487 497.213Q243.679 493.887 243.953 490.567Q244.227 487.247 244.584 483.935Q244.941 480.622 245.38 477.32Q245.819 474.018 246.34 470.728Q246.861 467.437 247.464 464.161Q248.067 460.885 248.752 457.625Q249.436 454.364 250.201 451.122Q250.967 447.88 251.812 444.658Q252.658 441.436 253.584 438.236Q254.51 435.035 255.515 431.859Q256.52 428.683 257.604 425.533Q258.688 422.383 259.85 419.261Q261.012 416.139 262.251 413.047Q263.49 409.955 264.806 406.894Q266.122 403.834 267.514 400.807Q268.906 397.781 270.372 394.79Q271.839 391.799 273.38 388.845Q274.92 385.891 276.534 382.977Q278.148 380.063 279.834 377.189Q281.519 374.316 283.276 371.486Q285.033 368.655 286.86 365.869Q288.686 363.084 290.582 360.344Q292.477 357.605 294.441 354.913Q296.404 352.222 298.433 349.58Q300.463 346.938 302.557 344.348Q304.652 341.758 306.811 339.22Q308.969 336.683 311.19 334.2Q313.422 331.706 315.715 329.268Q318.008 326.83 320.359 324.448Q322.711 322.067 325.121 319.744Q327.53 317.421 329.996 315.158Q332.461 312.895 334.982 310.692Q337.502 308.49 340.076 306.351Q342.649 304.211 345.275 302.135Q347.9 300.059 350.576 298.048Q353.251 296.038 355.975 294.093Q358.699 292.148 361.47 290.271Q364.24 288.394 367.056 286.585Q369.872 284.776 372.732 283.037Q375.591 281.297 378.493 279.629Q381.394 277.96 384.335 276.363Q387.277 274.766 390.256 273.242Q393.236 271.717 396.252 270.267Q399.268 268.816 402.319 267.439Q405.369 266.063 408.453 264.762Q411.537 263.46 414.651 262.235Q417.766 261.01 420.909 259.861Q424.053 258.713 427.224 257.641Q430.395 256.57 433.591 255.577Q436.787 254.584 440.007 253.67Q443.226 252.755 446.467 251.92Q449.708 251.085 452.969 250.33Q456.229 249.574 459.507 248.899Q462.785 248.224 466.079 247.629Q469.372 247.034 472.68 246.52Q475.987 246.006 479.306 245.574Q482.625 245.141 485.953 244.79Q489.281 244.439 492.617 244.17Q495.953 243.9 499.295 243.713Z"/>
	<path fill="#012D63" d="M468.495 579.62C459.518 575.823 452.087 568.747 448.389 559.651C446.471 554.934 444.147 546.753 446.429 541.95C447.454 539.792 449.511 538.33 451.735 537.592C453.382 537.045 455.196 536.832 456.776 537.708C462.922 541.119 459.886 558.001 475.285 564.808C478.969 566.437 482.97 566.912 486.897 565.948C493.466 564.335 498.626 558.904 501.956 553.224C504.173 549.442 506.331 539.604 510.416 538.41C511.663 538.046 512.615 538.046 513.901 538.284C520.06 542.443 518.904 557.094 532.5 563.967Q533.227 564.339 533.983 564.648Q534.739 564.957 535.519 565.202Q536.298 565.446 537.095 565.625Q537.892 565.803 538.701 565.914Q539.511 566.025 540.326 566.067Q541.142 566.11 541.958 566.084Q542.775 566.057 543.586 565.963Q544.397 565.868 545.198 565.706C550.993 564.485 555.477 561.61 558.623 556.554C562.036 551.07 562.688 539.594 569.599 537.623C571.678 537.03 574.31 538.079 575.986 539.269C577.856 540.598 578.667 542.798 578.956 544.998Q579.049 545.754 579.104 546.514Q579.159 547.274 579.176 548.036Q579.193 548.798 579.172 549.56Q579.151 550.321 579.092 551.081Q579.033 551.841 578.937 552.596Q578.84 553.352 578.706 554.102Q578.572 554.852 578.401 555.595Q578.23 556.337 578.022 557.07Q577.814 557.803 577.57 558.525Q577.326 559.247 577.046 559.956Q576.766 560.664 576.451 561.358Q576.137 562.052 575.788 562.73Q575.439 563.407 575.057 564.066Q574.675 564.725 574.26 565.365Q573.846 566.004 573.4 566.622Q572.954 567.24 572.478 567.835C569.213 571.847 564.886 575.177 560.373 577.675C558.731 578.584 556.812 579.265 555.261 580.287C551.005 581.755 546.733 582.604 542.229 582.815C530.17 583.379 520.527 579.669 511.676 571.612C508.555 574.681 505.074 577.454 501.169 579.461C490.336 585.027 479.604 583.141 468.495 579.62Z"/>
	<path fill="#FEFEFE" d="M689.566 541.7C701.452 540.826 714.601 544.681 724.212 551.685C732.039 557.388 738.584 565.806 740.028 575.59Q740.142 576.414 740.216 577.242Q740.289 578.07 740.321 578.901Q740.354 579.732 740.344 580.563Q740.335 581.395 740.285 582.225Q740.234 583.055 740.142 583.881Q740.051 584.707 739.918 585.528Q739.785 586.349 739.612 587.162Q739.439 587.975 739.225 588.779Q739.012 589.583 738.759 590.375Q738.505 591.167 738.213 591.945Q737.921 592.723 737.59 593.486Q737.26 594.249 736.892 594.995Q736.524 595.74 736.119 596.467Q735.714 597.193 735.274 597.898Q734.834 598.604 734.359 599.286Q733.884 599.969 733.376 600.627C725.173 611.303 712.951 616.194 699.996 617.973C686.72 618.57 672.936 616.249 662.241 607.804C654.714 601.861 648.973 592.557 647.885 582.949C646.865 573.935 649.831 564.943 655.537 557.962C663.881 547.753 676.8 543.002 689.566 541.7Z"/>
	<path fill="#F48BBC" d="M511.676 571.612C520.527 579.669 530.17 583.379 542.229 582.815C546.733 582.604 551.005 581.755 555.261 580.287C555.31 580.88 555.337 581.469 555.355 582.064C555.965 602.347 558.187 625.965 543.022 641.904C535.246 650.076 524.164 655.359 512.812 655.524C501.459 655.688 490.262 650.536 482.261 642.618C465.285 625.82 468.467 601.432 468.495 579.62C479.604 583.141 490.336 585.027 501.169 579.461C505.074 577.454 508.555 574.681 511.676 571.612Z"/>
	<path fill="#FEFEFE" d="M325.589 541.68C339.502 539.618 354.914 544.243 366.2 552.363C373.866 557.879 379.71 566.3 381.1 575.758C382.266 583.691 379.531 591.7 374.817 598.04C366.118 609.74 352.2 615.693 338.159 617.785C323.983 619.627 308.54 615.748 297.034 607.269C289.708 601.87 283.878 594.201 282.585 585.006C281.345 576.195 283.943 567.706 289.306 560.692C298.138 549.142 311.539 543.566 325.589 541.68Z"/>
	<path d="M375.408 419.706C389.67 418.471 404.457 423.783 415.343 432.924C427.276 442.946 434.955 458.247 436.224 473.725C437.48 489.035 432.698 505.318 422.667 517.046C412.707 528.691 399.198 535.396 383.952 536.517C368.564 536.718 355.131 533.775 343.008 523.794Q341.893 522.882 340.824 521.917Q339.754 520.952 338.734 519.936Q337.713 518.92 336.743 517.855Q335.773 516.79 334.857 515.68Q333.94 514.569 333.078 513.414Q332.217 512.26 331.413 511.065Q330.609 509.87 329.865 508.637Q329.121 507.404 328.437 506.136Q327.754 504.868 327.133 503.568Q326.513 502.268 325.957 500.94Q325.4 499.611 324.91 498.257Q324.419 496.903 323.995 495.526Q323.571 494.15 323.215 492.754Q322.859 491.359 322.571 489.947Q322.284 488.536 322.066 487.112Q321.847 485.689 321.699 484.256C320.205 468.52 325.082 451.77 335.313 439.634C345.578 427.459 359.765 421.109 375.408 419.706Z"/>
	<path fill="#FEFEFE" d="M389.966 475.038C391.317 475.014 392.819 474.911 394.14 475.219C396.261 475.713 398.278 477.431 399.334 479.298Q399.548 479.678 399.722 480.078Q399.896 480.478 400.027 480.894Q400.158 481.31 400.244 481.737Q400.331 482.165 400.373 482.599Q400.414 483.033 400.41 483.469Q400.406 483.905 400.357 484.339Q400.307 484.772 400.213 485.198Q400.118 485.623 399.98 486.037C398.962 489.161 396.857 490.575 394.014 491.927C392.544 491.974 390.954 492.101 389.539 491.63C387.355 490.902 385.401 489.187 384.393 487.122Q384.2 486.728 384.05 486.317Q383.899 485.905 383.793 485.48Q383.686 485.055 383.624 484.621Q383.563 484.187 383.547 483.749Q383.531 483.311 383.56 482.874Q383.59 482.437 383.665 482.005Q383.741 481.574 383.861 481.152Q383.981 480.731 384.144 480.324C385.245 477.52 387.347 476.252 389.966 475.038Z"/>
	<path fill="#FEFEFE" d="M364.09 441.592C367.903 441.406 371.604 442.047 374.994 443.872C379.643 446.376 382.892 450.817 384.202 455.898C385.421 460.631 384.814 465.587 382.306 469.798C379.058 475.252 374.207 477.938 368.265 479.52C364.002 479.592 360.249 479.265 356.392 477.196Q355.965 476.968 355.551 476.717Q355.136 476.467 354.735 476.196Q354.334 475.924 353.948 475.632Q353.562 475.34 353.192 475.028Q352.821 474.716 352.467 474.386Q352.114 474.055 351.778 473.706Q351.442 473.357 351.125 472.992Q350.808 472.626 350.51 472.244Q350.212 471.862 349.935 471.465Q349.657 471.069 349.401 470.658Q349.145 470.247 348.91 469.823Q348.676 469.4 348.464 468.965Q348.252 468.529 348.063 468.084Q347.874 467.638 347.708 467.183Q347.542 466.728 347.401 466.265Q347.259 465.802 347.142 465.332Q347.025 464.856 346.933 464.375Q346.84 463.894 346.772 463.408Q346.705 462.923 346.662 462.435Q346.619 461.947 346.601 461.457Q346.583 460.967 346.59 460.477Q346.597 459.987 346.63 459.498Q346.662 459.009 346.719 458.523Q346.776 458.036 346.858 457.553Q346.94 457.07 347.046 456.591Q347.153 456.113 347.284 455.641Q347.415 455.168 347.569 454.703Q347.724 454.239 347.903 453.782Q348.081 453.326 348.282 452.879Q348.484 452.432 348.708 451.996Q348.932 451.56 349.178 451.137Q349.424 450.713 349.691 450.302C353.086 445.05 358.192 442.812 364.09 441.592Z"/>
	<path d="M638.261 419.679C638.415 419.658 638.569 419.633 638.724 419.617C653.34 418.101 669.175 422.624 680.696 431.729C692.521 441.074 700.632 455.673 702.224 470.657C703.929 486.707 700.199 501.245 690.001 513.846Q689.096 514.961 688.138 516.031Q687.179 517.1 686.17 518.122Q685.161 519.144 684.103 520.115Q683.045 521.087 681.942 522.006Q680.838 522.924 679.691 523.788Q678.544 524.653 677.356 525.46Q676.168 526.267 674.942 527.016Q673.717 527.764 672.456 528.452Q671.195 529.14 669.903 529.766Q668.61 530.392 667.289 530.954Q665.967 531.516 664.62 532.013Q663.272 532.51 661.903 532.942Q660.533 533.373 659.143 533.737Q657.754 534.101 656.349 534.397Q654.943 534.693 653.525 534.92Q652.107 535.147 650.68 535.305C636.722 536.976 620.117 531.906 609.056 523.386Q607.924 522.517 606.835 521.593Q605.747 520.669 604.705 519.693Q603.663 518.717 602.67 517.692Q601.677 516.666 600.736 515.592Q599.795 514.519 598.907 513.401Q598.02 512.283 597.188 511.122Q596.356 509.962 595.583 508.762Q594.809 507.562 594.095 506.326Q593.381 505.09 592.729 503.82Q592.076 502.55 591.487 501.25Q590.897 499.95 590.372 498.622Q589.847 497.294 589.388 495.943Q588.929 494.591 588.537 493.218Q588.144 491.846 587.82 490.456Q587.495 489.065 587.239 487.661Q586.983 486.256 586.796 484.841Q586.626 483.406 586.526 481.964Q586.426 480.522 586.397 479.077Q586.368 477.632 586.409 476.188Q586.45 474.743 586.562 473.302Q586.674 471.861 586.856 470.427Q587.038 468.994 587.289 467.571Q587.541 466.147 587.862 464.738Q588.182 463.329 588.572 461.937Q588.961 460.545 589.417 459.174Q589.874 457.803 590.397 456.456Q590.92 455.108 591.508 453.788Q592.096 452.468 592.748 451.178Q593.4 449.888 594.114 448.632Q594.828 447.375 595.602 446.155Q596.377 444.935 597.21 443.754Q598.043 442.573 598.933 441.434C608.54 429.145 622.888 421.558 638.261 419.679Z"/>
	<path fill="#FEFEFE" d="M655.003 475.533C656.598 475.411 658.401 475.172 659.942 475.684C662.029 476.378 663.893 478.031 664.864 479.997C665.908 482.108 665.945 484.569 665.115 486.757C664.074 489.497 661.987 490.877 659.461 492.113C658.644 492.15 657.812 492.186 656.997 492.112C654.443 491.878 652.022 490.541 650.543 488.435C649.212 486.541 648.847 484.133 649.385 481.899C650.178 478.599 652.215 477.17 655.003 475.533Z"/>
	<path fill="#FEFEFE" d="M625.815 441.106C629.853 440.7 633.527 440.783 637.346 442.403Q637.801 442.596 638.245 442.811Q638.688 443.027 639.121 443.266Q639.553 443.504 639.972 443.764Q640.392 444.025 640.797 444.306Q641.203 444.588 641.593 444.89Q641.983 445.192 642.358 445.514Q642.732 445.836 643.089 446.176Q643.447 446.517 643.786 446.876Q644.125 447.234 644.445 447.61Q644.765 447.985 645.066 448.377Q645.366 448.769 645.646 449.175Q645.926 449.582 646.185 450.002Q646.443 450.423 646.68 450.856Q646.917 451.289 647.131 451.734Q647.344 452.179 647.535 452.634Q647.726 453.089 647.893 453.554Q648.059 454.016 648.201 454.485Q648.343 454.954 648.462 455.43Q648.581 455.906 648.675 456.387Q648.77 456.868 648.841 457.353Q648.911 457.839 648.958 458.327Q649.004 458.815 649.026 459.305Q649.047 459.795 649.045 460.285Q649.042 460.775 649.015 461.265Q648.987 461.755 648.936 462.242Q648.884 462.73 648.808 463.214Q648.732 463.699 648.632 464.179Q648.532 464.659 648.408 465.133Q648.284 465.608 648.136 466.076Q647.989 466.543 647.818 467.003Q647.647 467.463 647.453 467.913Q647.26 468.364 647.044 468.804C644.391 474.281 640.021 477.567 634.364 479.462C629.937 479.828 626.165 479.995 621.971 478.095C617.079 475.878 613.355 471.43 611.601 466.403C609.869 461.441 609.982 455.721 612.379 450.994C615.221 445.391 620.077 442.868 625.815 441.106Z"/>
</svg>
